<svg height="480pt" viewBox="0 0 480 480.02399" width="480pt" xmlns="http://www.w3.org/2000/svg"><path d="m415.507812 76.320312c-44.222656-47.773437-106.105468-75.316406-171.199218-76.199218-2.765625-.1601565-5.535156-.1601565-8.296875 0-94.800781 1.578125-179.785157 58.824218-216.875 146.078125-37.089844 87.257812-19.332031 188.171875 45.316406 257.527343 44.222656 47.773438 106.105469 75.320313 171.199219 76.203126 1.445312.085937 2.878906.09375 4.328125.09375 1.445312 0 2.878906 0 4-.078126 94.800781-1.589843 179.78125-58.839843 216.863281-146.097656 37.082031-87.261718 19.316406-188.175781-45.335938-257.527344zm48.289063 155.703126h-96c-.394531-40.023438-6.707031-79.769532-18.738281-117.945313 20.328125-5.289063 40.011718-12.804687 58.695312-22.398437 34.457032 38.824218 54.277344 88.464843 56.042969 140.34375zm-207.816406 144h-32v-32h32zm-24 48v-32h16v32zm36.238281-96h-56.480469c-32.988281-.035157-59.722656-26.769532-59.757812-59.757813v-88.960937c.046875-1.792969 1.488281-3.234376 3.277343-3.28125h4.722657v16c0 4.417968 3.582031 8 8 8h24c4.417969 0 8-3.582032 8-8v-16h80v16c0 4.417968 3.582031 8 8 8h24c4.417969 0 8-3.582032 8-8v-16h4.71875c1.792969.046874 3.234375 1.488281 3.28125 3.28125v88.960937c-.035157 32.988281-26.769531 59.722656-59.761719 59.757813zm-92.238281-240h8v96h-8zm104 72h-32v-32.214844c10.851562-.191406 21.519531-.769532 32-1.738282zm-48 0h-32v-33.953126c10.472656.960938 21.140625 1.539063 32 1.738282zm72 24h-8v-96h8zm24.144531-81.207032c-2.679688.589844-5.386719 1.144532-8.144531 1.679688v-20.207032c2.863281 5.855469 5.578125 12.03125 8.144531 18.527344zm-16.144531-30.792968h-24c-4.417969 0-8 3.582031-8 8v30c-10.464844.984374-21.167969 1.601562-32 1.769531v-95.144531c24.253906 3.582031 47.4375 23.464843 65.78125 55.734374-.578125-.1875-1.175781-.308593-1.78125-.359374zm-80-55.375v95.144531c-10.832031-.199219-21.535157-.800781-32-1.769531v-30c0-4.417969-3.582031-8-8-8h-24c-.609375.050781-1.207031.171874-1.785157.359374 18.34375-32.269531 41.519532-52.152343 65.785157-55.734374zm-72 87.847656c-2.753907-.535156-5.46875-1.089844-8.144531-1.671875 2.550781-6.5 5.261718-12.679688 8.144531-18.535157zm-13.601563 13.496094c4.425782 1.003906 8.960938 1.925781 13.601563 2.769531v39.261719h-4.722657c-10.640624.015624-19.265624 8.636718-19.277343 19.28125v52.71875h-7.847657c.375-38.710938 6.539063-77.144532 18.285157-114.03125zm-10.398437 130.03125v20.242187c.0625 40.335937 31.710937 73.550781 72 75.566406v9.398438c-20.710938 1.394531-41.285157 4.363281-61.546875 8.875-11.757813-36.902344-17.929688-75.355469-18.300782-114.082031zm72 121.257812v14.742188c0 4.417968 3.582031 8 8 8v40c0 4.417968 3.582031 8 8 8h8v23.375c-31.136719-4.597657-60.472657-36.125-80.121094-86.109376 18.488281-4.019531 37.246094-6.695312 56.121094-8.007812zm40 94.117188v-23.375h8c4.417969 0 8-3.582032 8-8v-40c4.417969 0 8-3.582032 8-8v-14.742188c18.875 1.308594 37.628906 3.984375 56.117187 8-19.644531 49.984375-48.972656 81.519531-80.117187 86.117188zm85.542969-101.292969c-20.261719-4.511719-40.835938-7.476563-61.542969-8.875v-9.398438c40.285156-2.015625 71.933593-35.230469 72-75.566406v-20.242187h7.847656c-.375 38.726562-6.546875 77.179687-18.304687 114.082031zm10.457031-130.082031v-52.71875c-.015625-10.644532-8.636719-19.265626-19.28125-19.28125h-4.71875v-39.261719c4.621093-.855469 9.15625-1.777344 13.597656-2.769531 11.734375 36.886718 17.882813 75.324218 18.25 114.03125zm52.335937-152.421876c-16.820312 8.214844-34.429687 14.699219-52.5625 19.359376-9.921875-28.800782-26.519531-54.847657-48.4375-76 38.089844 9.589843 72.949219 29.140624 101 56.640624zm-211.722656-56.617187c-21.898438 21.160156-38.484375 47.203125-48.398438 76-18.128906-4.65625-35.734374-11.144531-52.550781-19.359375 28.03125-27.496094 62.875-47.046875 100.949219-56.640625zm-112.421875 68.71875c18.683594 9.597656 38.367187 17.109375 58.695313 22.402344-12.027344 38.164062-18.339844 77.902343-18.734376 117.917969h-96c1.765626-51.871094 21.585938-101.5 56.039063-140.320313zm-56.007813 156.320313h96c.390626 40.023437 6.703126 79.769531 18.734376 117.945312-20.328126 5.292969-40.011719 12.804688-58.695313 22.398438-34.457031-38.824219-54.277344-88.460938-56.039063-140.34375zm67.480469 152.425781c16.816407-8.214844 34.421875-14.703125 52.550781-19.359375 9.929688 28.796875 26.53125 54.839844 48.449219 76-38.09375-9.59375-72.953125-29.140625-101-56.640625zm211.71875 56.613281c21.902344-21.160156 38.488281-47.203125 48.398438-76 18.128906 4.65625 35.738281 11.144531 52.554687 19.363281-28.035156 27.496094-62.875 47.042969-100.953125 56.636719zm112.425781-68.71875c-18.6875-9.597656-38.371093-17.109375-58.699218-22.398438 12.03125-38.167968 18.34375-77.90625 18.738281-117.921874h96c-1.769531 51.871093-21.589844 101.5-56.039063 140.320312zm0 0"/><path d="m311.371094 228.960938c-1.238282-2.988282-4.15625-4.9375-7.390625-4.9375h-43.058594l10.257813-20.421876c1.242187-2.488281 1.105468-5.441406-.363282-7.804687-1.46875-2.359375-4.058594-3.789063-6.835937-3.773437h-32c-2.585938 0-5.011719 1.25-6.511719 3.351562l-40 56c-1.742188 2.441406-1.972656 5.648438-.601562 8.3125 1.371093 2.664062 4.117187 4.335938 7.113281 4.335938h37.390625l-13.078125 45.808593c-.992188 3.5.503906 7.230469 3.640625 9.078125 3.136718 1.84375 7.125 1.339844 9.703125-1.230468l80-80c2.289062-2.289063 2.972656-5.730469 1.734375-8.71875zm-71.199219 55.574218 7.519531-26.320312c.6875-2.414063.203125-5.015625-1.3125-7.019532-1.519531-2.003906-3.886718-3.175781-6.398437-3.171874h-32.457031l28.574218-40h14.9375l-10.253906 20.425781c-1.246094 2.484375-1.105469 5.4375.359375 7.800781 1.46875 2.359375 4.058594 3.789062 6.839844 3.773438h36.6875zm0 0"/></svg>
