<svg xmlns="http://www.w3.org/2000/svg" viewBox="0 0 512 512" xmlnsV="https://vecta.io/nano"><path d="M503.4 228.884l-43.253-39.41V58.8a15.06 15.06 0 0 0-15.057-15.057H340.976a15.06 15.06 0 0 0-15.057 15.057v8.374l-52.236-47.597a26.13 26.13 0 0 0-35.367-.001L8.598 228.885c-8.076 7.36-10.745 18.7-6.8 28.89s13.557 16.772 24.484 16.772h36.69v209.72a15.06 15.06 0 0 0 15.057 15.057h125.913a15.06 15.06 0 0 0 15.057-15.057V356.93h74v127.337a15.06 15.06 0 0 0 15.057 15.057h125.908a15.06 15.06 0 0 0 15.056-15.057v-209.72h36.697c10.926 0 20.537-6.584 24.484-16.772s1.277-21.53-6.8-28.89zm-69.436 15.55a15.06 15.06 0 0 0-15.057 15.057v209.72h-95.793V341.874a15.06 15.06 0 0 0-15.057-15.057H203.942a15.06 15.06 0 0 0-15.057 15.057V469.21h-95.8V259.5a15.06 15.06 0 0 0-15.057-15.057H36.245L256 44.193l74.836 68.19a15.06 15.06 0 0 0 25.197-11.13V73.847h74.002v122.276c0 4.237 1.784 8.276 4.916 11.13l40.803 37.18h-41.8z"/></svg>