<svg xmlns="http://www.w3.org/2000/svg" viewBox="0 0 480 480" xmlnsV="https://vecta.io/nano"><path d="M375.98 40c-35.346 0-64 28.654-64 64 .04 35.33 28.67 63.96 64 64 35.346 0 64-28.654 64-64s-28.654-64-64-64zm0 112c-26.5 0-48-21.5-48-48 .026-26.5 21.5-47.974 48-48 26.5 0 48 21.5 48 48s-21.5 48-48 48zm-8-152h16v24h-16zm0 184h16v24h-16zm-96-88h24v16h-24zm184 0h24v16h-24zM296.777 36.12L308.1 24.806l16.97 16.97L313.747 53.1zm130.105 130.1l11.314-11.314 16.97 16.97-11.314 11.314zm-130.102 5.65l16.97-16.97 11.314 11.314-16.97 16.97zM426.9 41.774l16.97-16.97 11.314 11.314-16.97 16.97zm4.114 426.394l-192-352A8 8 0 0 0 231.98 112h-224c-.6.013-1.2.1-1.784.232h-.192a7.75 7.75 0 0 0-2.2.976c-.2.132-.393.277-.576.432a8.37 8.37 0 0 0-1.728 1.768c-.112.168-.264.304-.368.48a6.95 6.95 0 0 0-.432 1.008 6.49 6.49 0 0 0-.28.64 7.99 7.99 0 0 0-.4 2.4V176a8.01 8.01 0 0 0 .96 3.808l159.96 296a8 8 0 0 0 7.04 4.192h256a8 8 0 0 0 8.001-7.999c.001-1.34-.335-2.657-.977-3.833zM362.5 376h-53.768l-39.272-72h53.768l39.272 72zm-192-88h-61.768L69.46 216h61.768l39.272 72zm-21.04-72h53.768l39.272 72h-53.768l-39.272-72zm29.768 88l39.272 72h-61.768l-39.272-72h61.768zm18.232 0h53.768l39.272 72h-53.768l-39.272-72zm117.04-16h-53.768l-39.272-72h53.768l39.272 72zm-87.272-160l39.272 72h-53.768l-39.272-72h53.768zm-72 0l39.272 72h-53.768l-39.272-72h53.768zm-72 0l39.272 72H60.732L21.46 128h61.768zm89.552 336L15.98 173.976v-22.6L186.5 464h-13.72zm31.952 0l-39.272-72h61.768l39.272 72h-61.768zm80 0l-39.272-72h53.768l39.272 72h-53.768zm72 0l-39.272-72h53.768l39.272 72h-53.768z"/></svg>